<svg width="140" height="140" viewBox="0 0 140 140" xmlns="http://www.w3.org/2000/svg" xmlns:xlink="http://www.w3.org/1999/xlink"><title>telegram logo</title><defs><path d="M0 70c0 38.634 31.366 70 70 70s70-31.366 70-70S108.634 0 70 0 0 31.366 0 70z" id="a"/><linearGradient x1="50%" y1="100%" x2="50%" y2="0%" id="b"><stop stop-color="#1C93D1" offset="0%"/><stop stop-color="#37B0E3" offset="100%"/></linearGradient></defs><g fill="none" fill-rule="evenodd"><mask id="c" fill="#fff"><use xlink:href="#a"/></mask><path d="M0 70c0 38.634 31.366 70 70 70s70-31.366 70-70S108.634 0 70 0 0 31.366 0 70z" fill="url(#b)" mask="url(#c)"/><path d="M47.383 75.117l8.305 22.987s1.039 2.15 2.15 2.15c1.113 0 17.65-17.203 17.65-17.203l18.39-35.519L47.68 69.185l-.297 5.932z" fill="#C8DAEA"/><path d="M58.395 81.012L56.8 97.956s-.667 5.19 4.524 0c5.19-5.191 10.158-9.195 10.158-9.195" fill="#A9C6D8"/><path d="M47.534 75.937L30.452 70.37s-2.04-.828-1.384-2.707c.135-.387.407-.716 1.223-1.285 3.786-2.638 70.062-26.46 70.062-26.46s1.871-.63 2.977-.211c.506.191.828.408 1.1 1.199.099.287.156.899.148 1.508-.005.438-.06.845-.098 1.483-.404 6.513-12.482 55.12-12.482 55.12s-.722 2.845-3.312 2.942c-.944.035-2.09-.156-3.46-1.335-5.081-4.37-22.645-16.174-26.525-18.77-.219-.146-.281-.336-.319-.521-.054-.274.244-.614.244-.614S89.207 53.536 90.02 50.684c.063-.222-.174-.33-.495-.235-2.03.747-37.242 22.982-41.128 25.437-.227.143-.864.05-.864.05" fill="#FFF"/></g></svg>